# xmcd CD database file
#
# Track frame offsets:
#	150
#	15097
#	35535
#	51122
#	73640
#	89424
#	107193
#	124485
#	142281
#	160897
#
# Disc length: 2371 seconds
#
# Revision: 3
# Processed by: cddbd v1.5.2PL0 Copyright (c) Steve Scherf et al.
# Submitted via: CDex 1.51
#
DISCID=8b09410a
DTITLE=Rolling Thunder Band - Kick In The Asphalt
DYEAR=1997
DGENRE=Country
TTITLE0=No Bull
TTITLE1=Me And Dad
TTITLE2=Girls Like Fast Cars Too
TTITLE3=Make It To Atlanta
TTITLE4=Eye Of The Hurricane
TTITLE5=A Few Good Men
TTITLE6=Racing Is A Girls Best Friend
TTITLE7=Drivers In Heaven
TTITLE8=Walk The Walk, Talk The Talk
TTITLE9=It's A Kick In The Asphalt
EXTD=Old School Nascar (SUX)!!!!!!! YEAR: 1997
EXTT0=
EXTT1=\n
EXTT2=
EXTT3=
EXTT4=
EXTT5=
EXTT6=
EXTT7=
EXTT8=
EXTT9=
PLAYORDER=
